<?xml version="1.0" standalone="no"?>
<!DOCTYPE svg PUBLIC "-//W3C//DTD SVG 20010904//EN"
 "http://www.w3.org/TR/2001/REC-SVG-20010904/DTD/svg10.dtd">
<svg version="1.0" xmlns="http://www.w3.org/2000/svg"
 width="96.000000pt" height="96.000000pt" viewBox="0 0 96.000000 96.000000"
 preserveAspectRatio="xMidYMid meet">
<metadata>
Created by potrace 1.14, written by Peter Selinger 2001-2017
</metadata>
<g transform="translate(0.000000,96.000000) scale(0.100000,-0.100000)"
fill="#000000" stroke="none">
<path d="M155 899 l6 -64 -45 -44 c-25 -25 -48 -42 -51 -39 -3 3 -18 43 -34
89 l-29 84 -1 -48 c-1 -26 6 -64 14 -84 19 -45 19 -59 1 -44 -13 11 -14 -9
-12 -141 1 -84 5 -159 9 -165 5 -8 4 -13 -2 -13 -6 0 -11 -10 -11 -22 l0 -21
25 23 c14 13 25 19 25 13 0 -5 -11 -20 -25 -33 -23 -22 -36 -68 -16 -55 14 8
18 -3 45 -104 l23 -91 -33 0 c-18 0 -35 6 -37 13 -3 6 -6 -3 -6 -20 -1 -32 0
-33 39 -33 30 0 42 -5 46 -17 3 -10 10 -25 15 -33 5 -8 12 -23 15 -33 8 -21
84 -25 84 -4 0 8 4 7 10 -3 8 -13 10 -12 10 3 0 9 -4 17 -8 17 -5 0 -7 13 -4
30 2 16 8 30 13 30 5 0 9 9 9 20 0 23 3 24 30 8 16 -10 23 -9 41 7 22 20 22
20 17 -2 -6 -24 6 -32 16 -10 11 26 -7 -49 -20 -80 l-13 -33 65 1 c35 1 64 5
64 11 0 5 -5 6 -10 3 -6 -3 -10 -1 -10 5 0 7 7 9 16 6 9 -3 18 -6 20 -6 3 0 2
-4 -1 -10 -4 -6 6 -10 22 -9 15 0 22 3 15 6 -6 2 -10 9 -6 14 3 5 15 3 27 -6
12 -8 28 -15 37 -15 13 0 13 1 0 10 -13 9 -13 10 0 11 10 0 8 3 -5 9 -15 6
-16 9 -4 9 8 1 24 -7 35 -17 17 -17 20 -17 31 -3 11 14 12 14 13 -2 0 -16 8
-17 81 -14 67 4 84 8 92 23 9 17 9 18 -6 5 -14 -11 -17 -11 -18 0 0 8 -2 24
-5 36 -2 12 1 25 6 28 5 3 8 0 5 -7 -3 -7 -1 -20 5 -28 17 -27 33 5 31 65 -1
62 -12 88 -49 123 -22 21 -26 22 -42 7 -10 -9 -24 -15 -32 -14 -25 5 -78 -30
-78 -52 0 -18 -2 -19 -15 -9 -9 7 -18 10 -22 7 -3 -4 -12 1 -19 11 -7 9 -16
13 -21 8 -4 -5 -2 -11 5 -13 6 -3 12 -9 12 -14 0 -6 -4 -7 -10 -4 -5 3 -10 1
-10 -5 0 -6 -4 -9 -9 -6 -5 3 -11 0 -14 -8 -3 -7 -17 -15 -30 -18 -22 -4 -25
-2 -22 21 2 14 2 20 -1 14 -3 -7 -10 -13 -16 -13 -7 0 -6 5 1 14 7 8 21 13 32
11 11 -2 17 0 14 6 -4 5 -3 15 2 22 4 6 9 21 10 32 3 16 -1 15 -28 -10 -18
-17 -28 -24 -24 -16 5 9 4 12 -3 7 -7 -4 -12 -13 -12 -19 0 -7 -9 -20 -20 -29
-27 -24 -33 -9 -33 79 0 40 -2 73 -6 73 -4 0 -13 -9 -21 -20 -8 -11 -18 -20
-22 -20 -4 0 -8 9 -8 20 0 11 -4 20 -10 20 -5 0 -10 -7 -10 -15 0 -8 -5 -15
-11 -15 -6 0 -26 -7 -45 -16 -33 -16 -35 -16 -69 10 -37 28 -55 70 -37 88 13
13 48 2 71 -24 13 -13 21 -16 26 -8 10 16 -23 49 -59 59 l-31 9 29 1 c18 1 39
-8 52 -20 14 -13 29 -19 40 -15 15 6 15 8 -2 27 -30 33 -74 52 -105 45 -16 -3
-29 -4 -29 -2 0 2 5 18 11 36 l12 33 63 -6 c77 -8 80 0 28 73 -41 57 -42 45
21 185 18 39 42 96 54 128 l21 57 -23 0 c-12 0 -33 -7 -45 -16 -20 -14 -22
-14 -22 0 0 9 -9 16 -20 16 -16 0 -20 -7 -20 -32 0 -33 -15 -29 -22 6 -1 11
-9 21 -16 24 -11 3 -13 -8 -7 -59z m91 -50 c-7 -19 -22 -53 -32 -77 -9 -23
-19 -40 -21 -38 -5 5 37 128 50 144 17 21 19 6 3 -29z m-142 -173 c-3 -14 -12
-26 -20 -26 -18 0 -18 5 2 36 20 30 27 26 18 -10z m-54 4 c0 -5 -4 -10 -10
-10 -5 0 -10 5 -10 10 0 6 5 10 10 10 6 0 10 -4 10 -10z m10 -73 c-9 -7 -24
-23 -33 -37 -22 -31 -22 -8 -1 25 9 14 24 25 33 25 14 -1 14 -2 1 -13z m-14
-94 c-6 -27 -6 -27 9 -9 8 11 18 17 21 13 8 -8 -23 -57 -36 -57 -11 0 -14 63
-3 73 12 13 15 7 9 -20z m50 -125 c-4 -29 -1 -52 8 -70 8 -15 11 -30 6 -33
-11 -7 -60 52 -60 72 0 15 37 73 47 73 3 0 2 -19 -1 -42z m44 -142 l45 -15
-46 0 c-33 -1 -49 3 -53 14 -7 18 -3 18 54 1z m616 -73 c-10 -10 -19 5 -10 18
6 11 8 11 12 0 2 -7 1 -15 -2 -18z m-592 -20 c-2 -20 -6 -38 -7 -40 -8 -8 -37
25 -43 50 -6 25 -4 27 24 27 30 0 31 -1 26 -37z m426 -8 c0 -8 -4 -15 -9 -15
-5 0 -14 7 -21 15 -10 13 -9 15 9 15 12 0 21 -6 21 -15z m-40 -25 c0 -5 -2
-10 -4 -10 -3 0 -8 5 -11 10 -3 6 -1 10 4 10 6 0 11 -4 11 -10z m-36 -9 c4 -1
6 -8 2 -16 -3 -8 -1 -15 4 -15 6 0 10 -7 10 -15 0 -11 -5 -12 -22 -6 -13 5
-22 16 -22 25 1 9 -2 16 -7 16 -5 0 -9 4 -9 9 0 5 8 8 18 6 9 -2 21 -4 26 -4z
m226 -11 c0 -5 -2 -10 -4 -10 -3 0 -8 5 -11 10 -3 6 -1 10 4 10 6 0 11 -4 11
-10z m-15 -20 c3 -5 2 -10 -4 -10 -5 0 -13 5 -16 10 -3 6 -2 10 4 10 5 0 13
-4 16 -10z m-315 -19 c0 -6 -4 -13 -10 -16 -5 -3 -10 1 -10 9 0 9 5 16 10 16
6 0 10 -4 10 -9z m170 -1 c0 -5 -5 -10 -11 -10 -5 0 -7 5 -4 10 3 6 8 10 11
10 2 0 4 -4 4 -10z m-213 -22 c-3 -8 -6 -5 -6 6 -1 11 2 17 5 13 3 -3 4 -12 1
-19z m343 -7 c0 -18 -4 -19 -39 -12 -7 2 22 31 30 31 5 0 9 -9 9 -19z m25 9
c3 -5 1 -10 -4 -10 -6 0 -11 5 -11 10 0 6 2 10 4 10 3 0 8 -4 11 -10z"/>
<path d="M368 953 c7 -3 16 -2 19 1 4 3 -2 6 -13 5 -11 0 -14 -3 -6 -6z"/>
<path d="M642 929 c-27 -24 -39 -29 -65 -24 -107 18 -247 12 -247 -11 0 -9 11
-14 31 -14 l31 0 -26 -30 c-35 -42 -26 -63 19 -44 41 17 139 18 184 3 44 -16
50 -4 10 20 -20 13 -42 18 -56 15 -14 -4 -23 -2 -23 5 0 6 7 11 16 11 8 0 12
5 9 10 -3 6 -22 10 -41 10 -19 0 -34 4 -34 9 0 9 35 7 71 -4 13 -4 43 -9 68
-10 33 -2 49 -8 63 -26 10 -13 36 -44 57 -69 l38 -45 -24 -18 -24 -18 -23 53
c-12 29 -26 61 -29 71 -4 9 -12 17 -18 17 -15 0 -2 -53 17 -63 15 -9 19 -37 5
-37 -5 0 -14 7 -21 15 -7 8 -19 15 -28 15 -11 0 -13 -8 -8 -39 3 -22 2 -42 -2
-45 -4 -2 -28 4 -52 15 -28 13 -62 19 -94 18 -28 -1 -65 3 -81 8 -45 15 -75 0
-75 -37 0 -31 30 -70 53 -70 8 0 25 16 39 36 l26 36 7 -31 c3 -17 11 -33 16
-36 5 -4 9 -11 9 -17 0 -7 -4 -7 -12 -1 -17 13 -58 11 -85 -5 -23 -13 -22 -52
2 -52 20 0 26 28 7 34 -9 3 3 4 27 1 24 -2 49 -9 55 -15 8 -8 4 -9 -17 -1 -39
15 -47 13 -17 -4 l25 -14 -30 -1 c-25 -1 -27 -3 -10 -9 35 -13 80 -6 83 13 2
10 -1 23 -7 29 -16 16 -14 27 4 27 25 0 65 31 65 51 0 30 15 30 44 0 20 -21
24 -30 14 -34 -7 -2 -10 -7 -6 -11 12 -14 48 19 49 44 2 24 2 24 6 2 4 -18 7
-21 18 -12 21 17 30 7 60 -65 25 -58 27 -68 15 -90 -7 -14 -17 -25 -22 -25 -4
0 -21 25 -36 57 -18 35 -32 52 -36 44 -4 -6 -3 -17 2 -24 5 -7 15 -30 22 -52
24 -76 22 -74 92 -60 56 12 88 33 88 57 0 4 5 8 10 8 6 0 10 -21 10 -46 0 -45
0 -46 -29 -39 -16 3 -32 2 -35 -4 -4 -6 -19 -8 -34 -5 -31 6 -69 -17 -58 -35
6 -9 11 -9 21 -1 8 7 22 10 32 7 15 -4 15 -6 -5 -12 -22 -7 -21 -9 18 -32 28
-17 49 -23 66 -19 39 10 23 31 -22 29 -30 -2 -35 -1 -19 6 11 5 32 10 48 10
26 1 27 -1 27 -44 0 -31 -5 -47 -15 -51 -17 -7 -18 -13 -6 -32 7 -11 19 -9 60
12 42 22 51 31 51 53 0 21 -3 24 -12 15 -7 -7 -20 -12 -29 -12 -14 0 -18 15
-24 91 -4 49 -5 92 -2 95 3 3 19 -32 35 -78 l31 -83 0 82 c1 69 -1 81 -14 77
-11 -5 -15 1 -15 24 0 17 6 32 15 36 8 3 15 12 15 21 0 17 -9 19 -30 5 -12 -7
-23 8 -57 81 -23 49 -56 129 -74 177 -31 86 -45 106 -62 95 -11 -6 -8 -16 32
-112 17 -41 30 -75 28 -77 -5 -5 -122 134 -125 149 -1 6 12 27 28 45 l31 32
-28 0 c-17 0 -41 -13 -61 -31z m28 -230 c0 -5 -4 -9 -10 -9 -5 0 -10 7 -10 16
0 8 5 12 10 9 6 -3 10 -10 10 -16z m150 -3 c0 -2 3 -11 6 -20 5 -13 -2 -16
-39 -16 -45 0 -64 11 -52 30 6 9 85 15 85 6z m-66 -94 c25 -34 46 -64 46 -66
0 -2 -7 -6 -15 -10 -11 -4 -25 14 -50 64 -52 104 -50 106 19 12z m97 -20 c3
-23 4 -44 1 -46 -6 -6 -72 70 -72 83 0 8 12 11 33 9 30 -3 32 -6 38 -46z m-31
-86 c0 -7 -6 -18 -12 -23 -15 -12 -68 -23 -68 -14 1 14 27 39 45 44 33 8 35 8
35 -7z m0 -116 c0 -5 -4 -10 -10 -10 -5 0 -10 5 -10 10 0 6 5 10 10 10 6 0 10
-4 10 -10z"/>
<path d="M760 946 c22 -12 141 -146 165 -186 5 -8 14 -37 21 -65 l12 -50 1 67
c1 71 -15 165 -31 186 -15 17 -41 15 -34 -3 11 -29 -12 -15 -39 25 -26 37 -31
40 -74 40 -45 -1 -45 -1 -21 -14z"/>
<path d="M857 949 c12 -12 93 -32 101 -25 2 3 2 12 -1 21 -5 11 -21 15 -59 15
-37 0 -49 -3 -41 -11z"/>
<path d="M596 575 c-3 -8 -1 -15 4 -15 6 0 10 7 10 15 0 8 -2 15 -4 15 -2 0
-6 -7 -10 -15z"/>
<path d="M365 520 c-3 -5 1 -10 10 -10 9 0 13 5 10 10 -3 6 -8 10 -10 10 -2 0
-7 -4 -10 -10z"/>
<path d="M324 496 c18 -56 89 -103 111 -73 5 7 23 20 39 28 46 22 47 43 2 36
-20 -3 -36 -2 -36 4 0 5 -14 3 -32 -4 -43 -17 -54 -16 -73 8 -15 18 -16 18
-11 1z"/>
<path d="M630 415 c7 -9 15 -13 17 -11 7 7 -7 26 -19 26 -6 0 -6 -6 2 -15z"/>
<path d="M567 370 c3 -11 9 -17 15 -14 5 3 4 12 -3 20 -16 19 -18 18 -12 -6z"/>
<path d="M498 338 c-3 -7 0 -26 7 -41 11 -28 11 -28 29 -8 10 11 28 23 40 27
17 6 13 9 -24 20 -25 8 -46 14 -46 14 -1 0 -4 -6 -6 -12z"/>
<path d="M827 294 c-4 -4 -4 -10 -1 -15 6 -10 34 0 34 12 0 10 -24 12 -33 3z"/>
<path d="M531 251 c-7 -5 -11 -15 -9 -22 3 -10 8 -7 17 9 13 24 12 26 -8 13z"/>
<path d="M566 224 c-4 -9 -4 -19 -1 -22 2 -3 7 3 11 12 4 9 4 19 1 22 -2 3 -7
-3 -11 -12z"/>
<path d="M913 185 c-26 -18 -30 -25 -20 -38 7 -8 24 -17 40 -21 26 -6 27 -5
27 39 0 25 -3 45 -7 44 -5 0 -22 -11 -40 -24z"/>
<path d="M240 111 c0 -6 4 -13 10 -16 6 -3 7 1 4 9 -7 18 -14 21 -14 7z"/>
<path d="M0 51 c0 -20 49 -39 70 -26 15 9 12 32 -6 39 -33 13 -64 7 -64 -13z"/>
<path d="M880 21 c0 -6 4 -13 10 -16 6 -3 7 1 4 9 -7 18 -14 21 -14 7z"/>
</g>
</svg>
